<mxfile host="app.diagrams.net" modified="2023-01-28T13:47:33.516Z" agent="5.0 (Windows NT 10.0; Win64; x64) AppleWebKit/537.36 (KHTML, like Gecko) Chrome/109.0.0.0 Safari/537.36 Edg/109.0.1518.61" etag="hOvWImA3YBRFSONk0dbf" version="20.8.13" type="github">
  <diagram id="n_ZwVlq82vjgPUWkwoDR" name="第 1 页">
    <mxGraphModel dx="1064" dy="547" grid="0" gridSize="10" guides="1" tooltips="1" connect="1" arrows="1" fold="1" page="1" pageScale="1" pageWidth="1169" pageHeight="827" background="none" math="0" shadow="1">
      <root>
        <mxCell id="0" />
        <mxCell id="1" parent="0" />
        <mxCell id="PBSmmylOZ62XXE8JsD5N-2" value="&lt;font style=&quot;font-size: 18px;&quot;&gt;2S 800mah电池&lt;/font&gt;" style="rounded=0;whiteSpace=wrap;html=1;fillColor=#f8cecc;strokeColor=#b85450;" parent="1" vertex="1">
          <mxGeometry x="160" y="419" width="140" height="60" as="geometry" />
        </mxCell>
        <mxCell id="PBSmmylOZ62XXE8JsD5N-3" value="" style="endArrow=classic;html=1;rounded=0;fontSize=18;exitX=1;exitY=0.5;exitDx=0;exitDy=0;strokeWidth=2;strokeColor=#FF0505;" parent="1" source="PBSmmylOZ62XXE8JsD5N-2" edge="1">
          <mxGeometry width="50" height="50" relative="1" as="geometry">
            <mxPoint x="350" y="589" as="sourcePoint" />
            <mxPoint x="400" y="449" as="targetPoint" />
          </mxGeometry>
        </mxCell>
        <mxCell id="PBSmmylOZ62XXE8JsD5N-5" value="7.4V" style="text;html=1;strokeColor=none;fillColor=none;align=center;verticalAlign=middle;whiteSpace=wrap;rounded=0;fontSize=18;" parent="1" vertex="1">
          <mxGeometry x="320" y="419" width="60" height="30" as="geometry" />
        </mxCell>
        <mxCell id="PBSmmylOZ62XXE8JsD5N-6" value="&lt;font style=&quot;font-size: 18px;&quot;&gt;LM2596稳压板&lt;/font&gt;" style="rounded=0;whiteSpace=wrap;html=1;fillColor=#fad7ac;strokeColor=#b46504;" parent="1" vertex="1">
          <mxGeometry x="400" y="419" width="140" height="60" as="geometry" />
        </mxCell>
        <mxCell id="PBSmmylOZ62XXE8JsD5N-7" value="" style="endArrow=classic;html=1;rounded=0;fontSize=18;exitX=0.5;exitY=1;exitDx=0;exitDy=0;strokeWidth=2;strokeColor=#FF0505;" parent="1" source="PBSmmylOZ62XXE8JsD5N-6" edge="1">
          <mxGeometry width="50" height="50" relative="1" as="geometry">
            <mxPoint x="440" y="529" as="sourcePoint" />
            <mxPoint x="470" y="579" as="targetPoint" />
          </mxGeometry>
        </mxCell>
        <mxCell id="PBSmmylOZ62XXE8JsD5N-8" value="6V" style="text;html=1;strokeColor=none;fillColor=none;align=center;verticalAlign=middle;whiteSpace=wrap;rounded=0;fontSize=18;" parent="1" vertex="1">
          <mxGeometry x="470" y="519" width="60" height="30" as="geometry" />
        </mxCell>
        <mxCell id="PBSmmylOZ62XXE8JsD5N-9" value="&lt;span style=&quot;font-size: 18px;&quot;&gt;PCA9685舵机扩展板&lt;/span&gt;" style="rounded=0;whiteSpace=wrap;html=1;fillColor=#fad7ac;strokeColor=#b46504;" parent="1" vertex="1">
          <mxGeometry x="420" y="579" width="100" height="60" as="geometry" />
        </mxCell>
        <mxCell id="PBSmmylOZ62XXE8JsD5N-10" value="" style="endArrow=classic;html=1;rounded=0;fontSize=18;exitX=0;exitY=0.25;exitDx=0;exitDy=0;strokeWidth=2;entryX=1;entryY=0.25;entryDx=0;entryDy=0;strokeColor=#CC6600;" parent="1" source="PBSmmylOZ62XXE8JsD5N-9" target="PBSmmylOZ62XXE8JsD5N-11" edge="1">
          <mxGeometry width="50" height="50" relative="1" as="geometry">
            <mxPoint x="460" y="664.5" as="sourcePoint" />
            <mxPoint x="560" y="664.5" as="targetPoint" />
          </mxGeometry>
        </mxCell>
        <mxCell id="PBSmmylOZ62XXE8JsD5N-11" value="&lt;font style=&quot;font-size: 18px;&quot;&gt;8个舵机&lt;/font&gt;" style="rounded=0;whiteSpace=wrap;html=1;fillColor=#f5f5f5;fontColor=#333333;strokeColor=#666666;" parent="1" vertex="1">
          <mxGeometry x="160" y="579" width="100" height="60" as="geometry" />
        </mxCell>
        <mxCell id="PBSmmylOZ62XXE8JsD5N-12" value="PWM" style="text;html=1;strokeColor=none;fillColor=none;align=center;verticalAlign=middle;whiteSpace=wrap;rounded=0;fontSize=18;" parent="1" vertex="1">
          <mxGeometry x="310" y="570" width="60" height="30" as="geometry" />
        </mxCell>
        <mxCell id="PBSmmylOZ62XXE8JsD5N-13" value="" style="endArrow=classic;html=1;rounded=0;fontSize=18;strokeWidth=2;exitX=0.5;exitY=0;exitDx=0;exitDy=0;strokeColor=#FF0505;" parent="1" source="PBSmmylOZ62XXE8JsD5N-6" edge="1">
          <mxGeometry width="50" height="50" relative="1" as="geometry">
            <mxPoint x="370" y="379" as="sourcePoint" />
            <mxPoint x="470" y="329" as="targetPoint" />
          </mxGeometry>
        </mxCell>
        <mxCell id="PBSmmylOZ62XXE8JsD5N-14" value="&lt;font style=&quot;font-size: 18px;&quot;&gt;ESP32主控板&lt;/font&gt;" style="rounded=0;whiteSpace=wrap;html=1;fillColor=#d5e8d4;strokeColor=#82b366;" parent="1" vertex="1">
          <mxGeometry x="400" y="260" width="140" height="60" as="geometry" />
        </mxCell>
        <mxCell id="PBSmmylOZ62XXE8JsD5N-15" value="6V" style="text;html=1;strokeColor=none;fillColor=none;align=center;verticalAlign=middle;whiteSpace=wrap;rounded=0;fontSize=18;" parent="1" vertex="1">
          <mxGeometry x="470" y="360" width="60" height="30" as="geometry" />
        </mxCell>
        <mxCell id="PBSmmylOZ62XXE8JsD5N-16" value="" style="endArrow=classic;html=1;rounded=0;fontSize=18;strokeWidth=2;exitX=1;exitY=0.5;exitDx=0;exitDy=0;entryX=1;entryY=0.5;entryDx=0;entryDy=0;strokeColor=#CC6600;" parent="1" source="PBSmmylOZ62XXE8JsD5N-14" target="PBSmmylOZ62XXE8JsD5N-9" edge="1">
          <mxGeometry width="50" height="50" relative="1" as="geometry">
            <mxPoint x="610" y="340" as="sourcePoint" />
            <mxPoint x="620" y="690" as="targetPoint" />
            <Array as="points">
              <mxPoint x="800" y="290" />
              <mxPoint x="800" y="609" />
            </Array>
          </mxGeometry>
        </mxCell>
        <mxCell id="PBSmmylOZ62XXE8JsD5N-17" value="IIC" style="text;html=1;strokeColor=none;fillColor=none;align=center;verticalAlign=middle;whiteSpace=wrap;rounded=0;fontSize=18;" parent="1" vertex="1">
          <mxGeometry x="710" y="250" width="60" height="30" as="geometry" />
        </mxCell>
        <mxCell id="PBSmmylOZ62XXE8JsD5N-18" value="" style="endArrow=classic;html=1;rounded=0;fontSize=18;strokeWidth=2;exitX=1;exitY=0.5;exitDx=0;exitDy=0;strokeColor=#FF0505;" parent="1" source="PBSmmylOZ62XXE8JsD5N-6" edge="1">
          <mxGeometry width="50" height="50" relative="1" as="geometry">
            <mxPoint x="600" y="480" as="sourcePoint" />
            <mxPoint x="600" y="449" as="targetPoint" />
          </mxGeometry>
        </mxCell>
        <mxCell id="PBSmmylOZ62XXE8JsD5N-20" value="&lt;font style=&quot;font-size: 18px;&quot;&gt;陀螺仪&lt;/font&gt;" style="rounded=0;whiteSpace=wrap;html=1;fillColor=#fad7ac;strokeColor=#b46504;" parent="1" vertex="1">
          <mxGeometry x="600" y="419" width="140" height="60" as="geometry" />
        </mxCell>
        <mxCell id="PBSmmylOZ62XXE8JsD5N-21" value="" style="endArrow=classic;html=1;rounded=0;fontSize=18;strokeWidth=2;entryX=1;entryY=0.5;entryDx=0;entryDy=0;strokeColor=#CC6600;" parent="1" target="PBSmmylOZ62XXE8JsD5N-20" edge="1">
          <mxGeometry width="50" height="50" relative="1" as="geometry">
            <mxPoint x="800" y="449" as="sourcePoint" />
            <mxPoint x="890" y="404" as="targetPoint" />
          </mxGeometry>
        </mxCell>
        <mxCell id="PBSmmylOZ62XXE8JsD5N-22" value="" style="endArrow=classic;html=1;rounded=0;fontSize=18;exitX=0;exitY=0.25;exitDx=0;exitDy=0;strokeWidth=2;entryX=1;entryY=0.25;entryDx=0;entryDy=0;strokeColor=#FF0000;" parent="1" edge="1">
          <mxGeometry width="50" height="50" relative="1" as="geometry">
            <mxPoint x="420" y="620" as="sourcePoint" />
            <mxPoint x="260" y="620" as="targetPoint" />
          </mxGeometry>
        </mxCell>
      </root>
    </mxGraphModel>
  </diagram>
</mxfile>
